<svg width="124" height="24" viewBox="0 0 124 24" fill="none" xmlns="http://www.w3.org/2000/svg">
<path d="M16.6518 19.6605C16.6518 19.9444 16.6405 20.1887 16.6178 20.3931C16.6064 20.5862 16.5837 20.7566 16.5496 20.9043C16.5155 21.0406 16.4701 21.1598 16.4133 21.2621C16.3565 21.3643 16.2656 21.4836 16.1407 21.6199C16.0157 21.7448 15.7715 21.9095 15.408 22.114C15.0559 22.3185 14.6186 22.5172 14.0961 22.7103C13.5849 22.8921 12.9942 23.0454 12.3241 23.1704C11.6652 23.2953 10.9496 23.3578 10.1772 23.3578C8.66648 23.3578 7.3034 23.1249 6.08799 22.6592C4.87258 22.1935 3.83892 21.5006 2.987 20.5805C2.13507 19.6491 1.48193 18.4905 1.02758 17.1047C0.573217 15.7189 0.346037 14.1059 0.346037 12.2658C0.346037 10.3916 0.595934 8.72746 1.09573 7.27351C1.59552 5.81957 2.2941 4.59848 3.19146 3.61025C4.08882 2.62202 5.16224 1.87233 6.41172 1.36117C7.67257 0.85002 9.05836 0.594444 10.5691 0.594444C11.1825 0.594444 11.7732 0.645559 12.3411 0.74779C12.9091 0.85002 13.4316 0.986328 13.9086 1.15671C14.3971 1.31574 14.8344 1.50316 15.2206 1.71898C15.6068 1.9348 15.8737 2.12222 16.0214 2.28125C16.1804 2.42892 16.2883 2.55386 16.3451 2.6561C16.4019 2.75833 16.4474 2.88895 16.4814 3.04798C16.5155 3.20701 16.5382 3.39443 16.5496 3.61025C16.5723 3.82607 16.5837 4.093 16.5837 4.41106C16.5837 4.75182 16.5723 5.04148 16.5496 5.28002C16.5269 5.51855 16.4871 5.71166 16.4303 5.85932C16.3735 6.00699 16.3054 6.1149 16.2259 6.18305C16.1464 6.25121 16.0555 6.28528 15.9533 6.28528C15.7829 6.28528 15.567 6.18873 15.3058 5.99563C15.0445 5.79117 14.7038 5.56967 14.2835 5.33113C13.8746 5.08123 13.3804 4.85973 12.8011 4.66663C12.2332 4.46217 11.5517 4.35994 10.7565 4.35994C9.88189 4.35994 9.09812 4.54168 8.40522 4.90517C7.72368 5.2573 7.1387 5.76845 6.65026 6.43863C6.17319 7.09745 5.8097 7.89826 5.5598 8.84105C5.3099 9.78385 5.18496 10.8459 5.18496 12.0272C5.18496 13.3222 5.31558 14.4467 5.57684 15.4009C5.84946 16.3436 6.22998 17.1217 6.71842 17.7351C7.21821 18.3485 7.81456 18.8085 8.50745 19.1152C9.21171 19.4106 10.0012 19.5582 10.8758 19.5582C11.6709 19.5582 12.3581 19.4674 12.9374 19.2856C13.5168 19.0925 14.0109 18.8824 14.4198 18.6552C14.8401 18.428 15.1808 18.2236 15.4421 18.0418C15.7147 17.8601 15.9249 17.7692 16.0725 17.7692C16.1861 17.7692 16.277 17.7919 16.3451 17.8374C16.4133 17.8828 16.4701 17.9737 16.5155 18.11C16.561 18.2463 16.595 18.4394 16.6178 18.6893C16.6405 18.9278 16.6518 19.2515 16.6518 19.6605ZM34.9852 14.6682C34.9852 15.9631 34.8148 17.1445 34.474 18.2122C34.1333 19.2799 33.6164 20.2 32.9235 20.9724C32.2306 21.7448 31.3617 22.3412 30.3167 22.7615C29.2716 23.1817 28.0505 23.3919 26.6534 23.3919C25.3017 23.3919 24.126 23.2045 23.1264 22.8296C22.1269 22.4548 21.2976 21.9095 20.6388 21.1939C19.98 20.4783 19.4916 19.598 19.1735 18.553C18.8555 17.5079 18.6964 16.3152 18.6964 14.9749C18.6964 13.68 18.8668 12.4986 19.2076 11.4309C19.5597 10.3518 20.0822 9.43172 20.7751 8.67067C21.468 7.89826 22.3313 7.30191 23.365 6.88163C24.41 6.46135 25.6311 6.25121 27.0282 6.25121C28.3913 6.25121 29.5727 6.43863 30.5722 6.81348C31.5718 7.17696 32.3954 7.71651 33.0428 8.43213C33.7016 9.14774 34.1901 10.0281 34.5081 11.0731C34.8262 12.1181 34.9852 13.3165 34.9852 14.6682ZM30.5722 14.8386C30.5722 14.0889 30.5098 13.4017 30.3848 12.7769C30.2712 12.1408 30.0724 11.5899 29.7885 11.1242C29.5045 10.6585 29.124 10.295 28.6469 10.0337C28.1812 9.77249 27.5905 9.64186 26.8749 9.64186C26.2388 9.64186 25.6822 9.76113 25.2051 9.99967C24.7281 10.2268 24.3362 10.5676 24.0295 11.022C23.7228 11.465 23.4899 12.0045 23.3309 12.6406C23.1832 13.2654 23.1094 13.981 23.1094 14.7875C23.1094 15.5372 23.1719 16.2301 23.2968 16.8662C23.4218 17.4909 23.6206 18.0361 23.8932 18.5019C24.1771 18.9676 24.5577 19.3311 25.0347 19.5923C25.5118 19.8422 26.1025 19.9672 26.8067 19.9672C27.4542 19.9672 28.0165 19.8536 28.4935 19.6264C28.9706 19.3878 29.3625 19.0471 29.6692 18.6041C29.9759 18.1611 30.2031 17.6272 30.3507 17.0025C30.4984 16.3664 30.5722 15.6451 30.5722 14.8386ZM52.9096 22.4207C52.9096 22.5343 52.8756 22.6365 52.8074 22.7274C52.7393 22.8069 52.6257 22.8751 52.4666 22.9318C52.3076 22.9886 52.0861 23.0284 51.8021 23.0511C51.5295 23.0852 51.1888 23.1022 50.7798 23.1022C50.3596 23.1022 50.0074 23.0852 49.7235 23.0511C49.4508 23.0284 49.235 22.9886 49.076 22.9318C48.917 22.8751 48.8034 22.8069 48.7352 22.7274C48.6671 22.6365 48.633 22.5343 48.633 22.4207V13.7481C48.633 13.0098 48.5762 12.4305 48.4626 12.0102C48.3604 11.5899 48.207 11.2321 48.0026 10.9368C47.7981 10.6301 47.5312 10.3972 47.2018 10.2382C46.8837 10.0678 46.5089 9.98263 46.0772 9.98263C45.532 9.98263 44.9811 10.1814 44.4245 10.579C43.8679 10.9765 43.2886 11.5558 42.6866 12.3169V22.4207C42.6866 22.5343 42.6525 22.6365 42.5843 22.7274C42.5162 22.8069 42.3969 22.8751 42.2265 22.9318C42.0675 22.9886 41.8517 23.0284 41.5791 23.0511C41.3065 23.0852 40.96 23.1022 40.5397 23.1022C40.1194 23.1022 39.773 23.0852 39.5004 23.0511C39.2278 23.0284 39.0063 22.9886 38.8359 22.9318C38.6769 22.8751 38.5633 22.8069 38.4951 22.7274C38.427 22.6365 38.3929 22.5343 38.3929 22.4207V7.2224C38.3929 7.10881 38.4213 7.01226 38.4781 6.93275C38.5349 6.84187 38.6371 6.76804 38.7848 6.71125C38.9324 6.65445 39.1199 6.61469 39.347 6.59198C39.5856 6.5579 39.8809 6.54086 40.233 6.54086C40.5965 6.54086 40.8975 6.5579 41.1361 6.59198C41.3746 6.61469 41.5564 6.65445 41.6813 6.71125C41.8176 6.76804 41.9142 6.84187 41.971 6.93275C42.0278 7.01226 42.0562 7.10881 42.0562 7.2224V8.97736C42.8967 8.06864 43.7486 7.3871 44.6119 6.93275C45.4866 6.47839 46.3953 6.25121 47.3381 6.25121C48.3717 6.25121 49.2407 6.42159 49.945 6.76236C50.6606 7.10313 51.2342 7.56885 51.6658 8.15951C52.1088 8.73882 52.4269 9.42036 52.62 10.2041C52.8131 10.9879 52.9096 11.9307 52.9096 13.0325V22.4207ZM65.7907 20.9213C65.7907 21.4211 65.7566 21.8073 65.6885 22.0799C65.6317 22.3412 65.5522 22.5286 65.4499 22.6422C65.3477 22.7444 65.1944 22.841 64.9899 22.9318C64.7968 23.0114 64.5639 23.0795 64.2913 23.1363C64.0301 23.2045 63.7404 23.2556 63.4224 23.2897C63.1157 23.3237 62.8033 23.3408 62.4852 23.3408C61.6333 23.3408 60.895 23.2329 60.2703 23.017C59.6455 22.8012 59.1287 22.4718 58.7198 22.0288C58.3108 21.5745 58.0098 21.0065 57.8167 20.325C57.6236 19.6434 57.5271 18.8369 57.5271 17.9055V10.1189H55.7039C55.4881 10.1189 55.3234 9.98831 55.2098 9.72705C55.0962 9.45444 55.0394 9.00576 55.0394 8.38101C55.0394 8.0516 55.0508 7.77331 55.0735 7.54613C55.1076 7.31895 55.153 7.14289 55.2098 7.01794C55.2666 6.88163 55.3348 6.78508 55.4143 6.72828C55.5052 6.67149 55.6074 6.64309 55.721 6.64309H57.5271V3.25244C57.5271 3.13885 57.5555 3.03662 57.6123 2.94575C57.6804 2.85488 57.794 2.78104 57.953 2.72425C58.1234 2.6561 58.3449 2.61066 58.6175 2.58794C58.9015 2.55386 59.2479 2.53683 59.6569 2.53683C60.0771 2.53683 60.4236 2.55386 60.6962 2.58794C60.9802 2.61066 61.2017 2.6561 61.3607 2.72425C61.5197 2.78104 61.6333 2.85488 61.7015 2.94575C61.7696 3.03662 61.8037 3.13885 61.8037 3.25244V6.64309H65.1092C65.2228 6.64309 65.3193 6.67149 65.3988 6.72828C65.4897 6.78508 65.5635 6.88163 65.6203 7.01794C65.6771 7.14289 65.7169 7.31895 65.7396 7.54613C65.7737 7.77331 65.7907 8.0516 65.7907 8.38101C65.7907 9.00576 65.7339 9.45444 65.6203 9.72705C65.5067 9.98831 65.342 10.1189 65.1262 10.1189H61.8037V17.258C61.8037 18.0872 61.9343 18.712 62.1956 19.1323C62.4569 19.5412 62.9226 19.7457 63.5927 19.7457C63.8199 19.7457 64.0244 19.7286 64.2061 19.6945C64.3879 19.6491 64.5469 19.6037 64.6832 19.5582C64.8309 19.5014 64.9501 19.456 65.041 19.4219C65.1432 19.3765 65.2341 19.3538 65.3136 19.3538C65.3818 19.3538 65.4443 19.3765 65.5011 19.4219C65.5692 19.456 65.6203 19.5355 65.6544 19.6605C65.6885 19.7741 65.7169 19.9331 65.7396 20.1375C65.7737 20.342 65.7907 20.6033 65.7907 20.9213ZM81.5002 22.4718C81.5002 22.6308 81.4434 22.7558 81.3298 22.8467C81.2162 22.9375 81.0344 23 80.7845 23.0341C80.546 23.0795 80.1882 23.1022 79.7111 23.1022C79.2 23.1022 78.8251 23.0795 78.5866 23.0341C78.3594 23 78.1947 22.9375 78.0925 22.8467C78.0016 22.7558 77.9562 22.6308 77.9562 22.4718V21.2621C77.3314 21.9323 76.6158 22.4548 75.8093 22.8296C75.0142 23.2045 74.1282 23.3919 73.1513 23.3919C72.3448 23.3919 71.6008 23.284 70.9193 23.0682C70.2491 22.8637 69.6641 22.557 69.1643 22.1481C68.6759 21.7278 68.2954 21.211 68.0227 20.5976C67.7501 19.9842 67.6138 19.2686 67.6138 18.4507C67.6138 17.5647 67.7842 16.798 68.125 16.1505C68.4771 15.4917 68.9939 14.9522 69.6755 14.5319C70.3684 14.1003 71.226 13.7822 72.2483 13.5777C73.2706 13.3733 74.4576 13.271 75.8093 13.271H77.2917V12.351C77.2917 11.8739 77.2405 11.4593 77.1383 11.1072C77.0474 10.7437 76.8884 10.4427 76.6612 10.2041C76.4454 9.96559 76.1501 9.78952 75.7752 9.67594C75.4117 9.56235 74.9574 9.50555 74.4122 9.50555C73.6965 9.50555 73.0548 9.58506 72.4868 9.74409C71.9302 9.90311 71.4361 10.0792 71.0045 10.2723C70.5728 10.4654 70.2093 10.6414 69.914 10.8005C69.63 10.9595 69.3972 11.039 69.2154 11.039C69.0905 11.039 68.9769 10.9993 68.8747 10.9197C68.7838 10.8402 68.7043 10.7266 68.6361 10.579C68.5793 10.4313 68.5339 10.2496 68.4998 10.0337C68.4657 9.81792 68.4487 9.57938 68.4487 9.31813C68.4487 8.966 68.4771 8.68771 68.5339 8.48324C68.5907 8.27878 68.6986 8.09704 68.8576 7.93801C69.0167 7.76763 69.2949 7.58589 69.6925 7.39278C70.0901 7.18832 70.5558 7.0009 71.0897 6.83051C71.6235 6.66013 72.2028 6.52382 72.8276 6.42159C73.4637 6.308 74.1168 6.25121 74.787 6.25121C75.9797 6.25121 76.9963 6.37048 77.8369 6.60902C78.6888 6.83619 79.3874 7.194 79.9326 7.68244C80.4778 8.15951 80.8754 8.77858 81.1253 9.53963C81.3752 10.3007 81.5002 11.2037 81.5002 12.2487V22.4718ZM77.2917 15.9631H75.656C74.9631 15.9631 74.3724 16.0142 73.884 16.1165C73.3955 16.2187 72.998 16.372 72.6913 16.5765C72.3846 16.781 72.1574 17.0309 72.0097 17.3262C71.8734 17.6102 71.8053 17.9396 71.8053 18.3144C71.8053 18.9505 72.0041 19.4503 72.4016 19.8138C72.8105 20.1773 73.3728 20.359 74.0884 20.359C74.6905 20.359 75.2414 20.2057 75.7412 19.899C76.2523 19.5923 76.7691 19.1436 77.2917 18.553V15.9631ZM97.2948 20.0012C97.2948 20.2966 97.2834 20.5465 97.2607 20.7509C97.2494 20.944 97.2266 21.1087 97.1926 21.245C97.1698 21.3813 97.1358 21.4949 97.0903 21.5858C97.0563 21.6653 96.9711 21.7732 96.8348 21.9095C96.6984 22.0345 96.4656 22.1935 96.1362 22.3866C95.8068 22.5684 95.4319 22.7331 95.0116 22.8807C94.5914 23.0284 94.1313 23.1477 93.6315 23.2385C93.1431 23.3294 92.6376 23.3748 92.1151 23.3748C90.9451 23.3748 89.9058 23.1931 88.9971 22.8296C88.0997 22.4661 87.3443 21.9323 86.731 21.228C86.1176 20.5124 85.6519 19.6434 85.3338 18.6211C85.0271 17.5988 84.8738 16.4288 84.8738 15.1112C84.8738 13.5891 85.0612 12.2771 85.436 11.1753C85.8222 10.0621 86.3561 9.14206 87.0376 8.41509C87.7192 7.68812 88.5257 7.14857 89.4571 6.79644C90.3885 6.44431 91.4108 6.26825 92.524 6.26825C92.9784 6.26825 93.4214 6.308 93.853 6.38752C94.296 6.46703 94.7049 6.57494 95.0798 6.71125C95.466 6.84755 95.8068 7.0009 96.1021 7.17128C96.4088 7.34167 96.6246 7.48933 96.7496 7.61428C96.8745 7.73923 96.9597 7.84714 97.0051 7.93801C97.0619 8.01753 97.1017 8.12544 97.1244 8.26174C97.1585 8.39805 97.1812 8.56844 97.1926 8.7729C97.2153 8.966 97.2266 9.20454 97.2266 9.48851C97.2266 10.1473 97.1698 10.613 97.0563 10.8857C96.9427 11.1469 96.795 11.2775 96.6133 11.2775C96.4202 11.2775 96.2157 11.198 95.9999 11.039C95.784 10.88 95.5285 10.7039 95.2331 10.5108C94.9378 10.3177 94.5857 10.1417 94.1768 9.98263C93.7678 9.8236 93.2794 9.74409 92.7114 9.74409C91.5983 9.74409 90.7463 10.1757 90.1557 11.039C89.565 11.8909 89.2697 13.1461 89.2697 14.8045C89.2697 15.6224 89.3435 16.3436 89.4912 16.9684C89.6388 17.5931 89.8547 18.1156 90.1386 18.5359C90.434 18.9562 90.7975 19.2743 91.2291 19.4901C91.6721 19.6945 92.1833 19.7968 92.7626 19.7968C93.3532 19.7968 93.8587 19.7116 94.279 19.5412C94.7106 19.3595 95.0855 19.1607 95.4035 18.9448C95.7216 18.729 95.9885 18.5359 96.2043 18.3655C96.4202 18.1838 96.6019 18.0929 96.7496 18.0929C96.8518 18.0929 96.937 18.1213 97.0051 18.1781C97.0733 18.2349 97.1244 18.3428 97.1585 18.5019C97.2039 18.6495 97.238 18.8426 97.2607 19.0812C97.2834 19.3197 97.2948 19.6264 97.2948 20.0012ZM109.409 20.9213C109.409 21.4211 109.375 21.8073 109.307 22.0799C109.25 22.3412 109.171 22.5286 109.068 22.6422C108.966 22.7444 108.813 22.841 108.608 22.9318C108.415 23.0114 108.182 23.0795 107.91 23.1363C107.648 23.2045 107.359 23.2556 107.041 23.2897C106.734 23.3237 106.422 23.3408 106.104 23.3408C105.252 23.3408 104.513 23.2329 103.889 23.017C103.264 22.8012 102.747 22.4718 102.338 22.0288C101.929 21.5745 101.628 21.0065 101.435 20.325C101.242 19.6434 101.145 18.8369 101.145 17.9055V10.1189H99.3224C99.1065 10.1189 98.9418 9.98831 98.8283 9.72705C98.7147 9.45444 98.6579 9.00576 98.6579 8.38101C98.6579 8.0516 98.6692 7.77331 98.6919 7.54613C98.726 7.31895 98.7715 7.14289 98.8283 7.01794C98.885 6.88163 98.9532 6.78508 99.0327 6.72828C99.1236 6.67149 99.2258 6.64309 99.3394 6.64309H101.145V3.25244C101.145 3.13885 101.174 3.03662 101.231 2.94575C101.299 2.85488 101.412 2.78104 101.571 2.72425C101.742 2.6561 101.963 2.61066 102.236 2.58794C102.52 2.55386 102.866 2.53683 103.275 2.53683C103.696 2.53683 104.042 2.55386 104.315 2.58794C104.599 2.61066 104.82 2.6561 104.979 2.72425C105.138 2.78104 105.252 2.85488 105.32 2.94575C105.388 3.03662 105.422 3.13885 105.422 3.25244V6.64309H108.728C108.841 6.64309 108.938 6.67149 109.017 6.72828C109.108 6.78508 109.182 6.88163 109.239 7.01794C109.296 7.14289 109.335 7.31895 109.358 7.54613C109.392 7.77331 109.409 8.0516 109.409 8.38101C109.409 9.00576 109.352 9.45444 109.239 9.72705C109.125 9.98831 108.96 10.1189 108.745 10.1189H105.422V17.258C105.422 18.0872 105.553 18.712 105.814 19.1323C106.075 19.5412 106.541 19.7457 107.211 19.7457C107.438 19.7457 107.643 19.7286 107.825 19.6945C108.006 19.6491 108.165 19.6037 108.302 19.5582C108.449 19.5014 108.569 19.456 108.659 19.4219C108.762 19.3765 108.853 19.3538 108.932 19.3538C109 19.3538 109.063 19.3765 109.119 19.4219C109.188 19.456 109.239 19.5355 109.273 19.6605C109.307 19.7741 109.335 19.9331 109.358 20.1375C109.392 20.342 109.409 20.6033 109.409 20.9213ZM123.21 18.127C123.21 18.9903 123.046 19.7513 122.716 20.4102C122.398 21.069 121.944 21.6199 121.353 22.0629C120.762 22.5059 120.064 22.8353 119.257 23.0511C118.451 23.2783 117.576 23.3919 116.633 23.3919C116.065 23.3919 115.52 23.3464 114.998 23.2556C114.487 23.1761 114.027 23.0738 113.618 22.9489C113.209 22.8126 112.868 22.6763 112.595 22.54C112.323 22.4037 112.124 22.2787 111.999 22.1651C111.874 22.0402 111.777 21.8527 111.709 21.6028C111.641 21.3416 111.607 20.9611 111.607 20.4613C111.607 20.1319 111.618 19.8706 111.641 19.6775C111.664 19.473 111.698 19.314 111.743 19.2004C111.789 19.0755 111.846 18.996 111.914 18.9619C111.982 18.9165 112.067 18.8937 112.169 18.8937C112.294 18.8937 112.476 18.9676 112.715 19.1152C112.964 19.2515 113.271 19.4049 113.635 19.5753C113.998 19.7457 114.418 19.9047 114.896 20.0523C115.384 20.2 115.935 20.2738 116.548 20.2738C116.934 20.2738 117.275 20.2341 117.571 20.1546C117.877 20.0751 118.138 19.9615 118.354 19.8138C118.581 19.6661 118.752 19.4787 118.865 19.2515C118.979 19.0244 119.036 18.7631 119.036 18.4678C119.036 18.127 118.928 17.8374 118.712 17.5988C118.508 17.3489 118.229 17.1331 117.877 16.9514C117.536 16.7696 117.145 16.5992 116.702 16.4402C116.27 16.2812 115.821 16.1051 115.356 15.912C114.901 15.7189 114.453 15.4974 114.01 15.2475C113.578 14.9976 113.186 14.6909 112.834 14.3274C112.493 13.9639 112.215 13.5266 111.999 13.0155C111.795 12.5043 111.692 11.8909 111.692 11.1753C111.692 10.4483 111.834 9.78385 112.118 9.18182C112.402 8.56844 112.811 8.04592 113.345 7.61428C113.879 7.18264 114.526 6.84755 115.287 6.60902C116.06 6.37048 116.923 6.25121 117.877 6.25121C118.354 6.25121 118.814 6.28528 119.257 6.35344C119.712 6.42159 120.121 6.50678 120.484 6.60902C120.848 6.71125 121.154 6.82484 121.404 6.94978C121.654 7.06337 121.83 7.1656 121.932 7.25648C122.046 7.33599 122.125 7.42118 122.171 7.51205C122.216 7.59157 122.25 7.6938 122.273 7.81874C122.296 7.93233 122.313 8.08 122.324 8.26174C122.347 8.43213 122.358 8.64795 122.358 8.90921C122.358 9.2159 122.347 9.46579 122.324 9.6589C122.313 9.852 122.285 10.0053 122.239 10.1189C122.205 10.2325 122.154 10.312 122.086 10.3575C122.018 10.3916 121.938 10.4086 121.847 10.4086C121.745 10.4086 121.586 10.3518 121.37 10.2382C121.154 10.1133 120.882 9.98263 120.552 9.84632C120.234 9.71001 119.859 9.58506 119.428 9.47147C119.007 9.34653 118.525 9.28405 117.979 9.28405C117.593 9.28405 117.258 9.32381 116.974 9.40332C116.69 9.48283 116.457 9.59642 116.276 9.74409C116.094 9.89176 115.958 10.0678 115.867 10.2723C115.776 10.4654 115.73 10.6755 115.73 10.9027C115.73 11.2548 115.838 11.5502 116.054 11.7887C116.27 12.0272 116.554 12.2374 116.906 12.4191C117.258 12.6009 117.656 12.7713 118.099 12.9303C118.553 13.0893 119.007 13.2654 119.462 13.4585C119.928 13.6402 120.382 13.856 120.825 14.1059C121.279 14.3558 121.682 14.6625 122.035 15.026C122.387 15.3895 122.671 15.8268 122.887 16.338C123.102 16.8378 123.21 17.4341 123.21 18.127Z" fill="white"/>
</svg>
