<svg width="150" height="31" viewBox="0 0 150 31" fill="none" xmlns="http://www.w3.org/2000/svg">
<path d="M26.0964 23.3866C26.0964 23.5002 26.0623 23.6024 25.9942 23.6933C25.9374 23.7842 25.8238 23.858 25.6534 23.9148C25.4944 23.9716 25.2786 24.017 25.0059 24.0511C24.7333 24.0852 24.3869 24.1022 23.9666 24.1022C23.5577 24.1022 23.2169 24.0852 22.9443 24.0511C22.6717 24.017 22.4558 23.9716 22.2968 23.9148C22.1378 23.858 22.0242 23.7842 21.9561 23.6933C21.8879 23.6024 21.8538 23.5002 21.8538 23.3866V5.44513H21.8197L15.4303 23.3696C15.3849 23.5172 15.3111 23.6422 15.2088 23.7444C15.1066 23.8353 14.9646 23.9091 14.7829 23.9659C14.6125 24.0227 14.391 24.0568 14.1184 24.0682C13.8458 24.0909 13.5163 24.1022 13.1301 24.1022C12.7439 24.1022 12.4145 24.0852 12.1419 24.0511C11.8693 24.0284 11.6421 23.9886 11.4604 23.9318C11.29 23.8637 11.1537 23.7842 11.0514 23.6933C10.9492 23.6024 10.8811 23.4945 10.847 23.3696L4.67907 5.44513H4.64499V23.3866C4.64499 23.5002 4.61092 23.6024 4.54276 23.6933C4.48597 23.7842 4.37238 23.858 4.20199 23.9148C4.03161 23.9716 3.81011 24.017 3.53749 24.0511C3.27624 24.0852 2.93547 24.1022 2.51519 24.1022C2.10627 24.1022 1.7655 24.0852 1.49288 24.0511C1.22027 24.017 0.998766 23.9716 0.828382 23.9148C0.669357 23.858 0.555767 23.7842 0.487613 23.6933C0.430818 23.6024 0.402421 23.5002 0.402421 23.3866V3.74129C0.402421 3.16198 0.555767 2.71898 0.862459 2.41229C1.16915 2.1056 1.57807 1.95225 2.08923 1.95225H5.01984C5.54235 1.95225 5.99103 1.99769 6.36588 2.08856C6.74072 2.16807 7.06445 2.31006 7.33707 2.51452C7.60968 2.70762 7.83686 2.96888 8.01861 3.29829C8.20035 3.61634 8.35938 4.0139 8.49568 4.49098L13.2664 17.6276H13.3346L18.2758 4.52506C18.4234 4.04798 18.5824 3.64474 18.7528 3.31533C18.9346 2.98592 19.139 2.71898 19.3662 2.51452C19.6047 2.31006 19.883 2.16807 20.2011 2.08856C20.5191 1.99769 20.8883 1.95225 21.3086 1.95225H24.3244C24.6311 1.95225 24.8923 1.99201 25.1082 2.07152C25.3353 2.15103 25.5171 2.2703 25.6534 2.42933C25.8011 2.57699 25.909 2.76442 25.9771 2.9916C26.0566 3.20742 26.0964 3.45731 26.0964 3.74129V23.3866ZM43.5949 23.4718C43.5949 23.6308 43.5381 23.7558 43.4245 23.8467C43.3109 23.9375 43.1292 24 42.8793 24.0341C42.6407 24.0795 42.2829 24.1022 41.8058 24.1022C41.2947 24.1022 40.9198 24.0795 40.6813 24.0341C40.4541 24 40.2894 23.9375 40.1872 23.8467C40.0963 23.7558 40.0509 23.6308 40.0509 23.4718V22.2621C39.4261 22.9323 38.7105 23.4548 37.904 23.8296C37.1089 24.2045 36.2229 24.3919 35.246 24.3919C34.4396 24.3919 33.6955 24.284 33.014 24.0682C32.3438 23.8637 31.7588 23.557 31.259 23.1481C30.7706 22.7278 30.3901 22.211 30.1175 21.5976C29.8449 20.9842 29.7085 20.2686 29.7085 19.4507C29.7085 18.5647 29.8789 17.798 30.2197 17.1505C30.5718 16.4917 31.0887 15.9522 31.7702 15.5319C32.4631 15.1003 33.3207 14.7822 34.343 14.5777C35.3653 14.3733 36.5523 14.271 37.904 14.271H39.3864V13.351C39.3864 12.8739 39.3353 12.4593 39.233 12.1072C39.1422 11.7437 38.9831 11.4427 38.756 11.2041C38.5401 10.9656 38.2448 10.7895 37.87 10.6759C37.5065 10.5623 37.0521 10.5056 36.5069 10.5056C35.7913 10.5056 35.1495 10.5851 34.5815 10.7441C34.025 10.9031 33.5308 11.0792 33.0992 11.2723C32.6676 11.4654 32.3041 11.6414 32.0087 11.8005C31.7248 11.9595 31.4919 12.039 31.3102 12.039C31.1852 12.039 31.0716 11.9993 30.9694 11.9197C30.8785 11.8402 30.799 11.7266 30.7309 11.579C30.6741 11.4313 30.6286 11.2496 30.5945 11.0337C30.5605 10.8179 30.5434 10.5794 30.5434 10.3181C30.5434 9.966 30.5718 9.68771 30.6286 9.48324C30.6854 9.27878 30.7933 9.09704 30.9524 8.93801C31.1114 8.76763 31.3897 8.58589 31.7872 8.39278C32.1848 8.18832 32.6505 8.0009 33.1844 7.83051C33.7183 7.66013 34.2976 7.52382 34.9223 7.42159C35.5584 7.308 36.2116 7.25121 36.8817 7.25121C38.0744 7.25121 39.0911 7.37048 39.9316 7.60902C40.7835 7.83619 41.4821 8.194 42.0273 8.68244C42.5726 9.15951 42.9701 9.77858 43.22 10.5396C43.4699 11.3007 43.5949 12.2037 43.5949 13.2487V23.4718ZM39.3864 16.9631H37.7507C37.0578 16.9631 36.4671 17.0142 35.9787 17.1165C35.4903 17.2187 35.0927 17.372 34.786 17.5765C34.4793 17.781 34.2521 18.0309 34.1045 18.3262C33.9682 18.6102 33.9 18.9396 33.9 19.3144C33.9 19.9505 34.0988 20.4503 34.4964 20.8138C34.9053 21.1773 35.4675 21.359 36.1832 21.359C36.7852 21.359 37.3361 21.2057 37.8359 20.899C38.347 20.5923 38.8639 20.1436 39.3864 19.553V16.9631ZM52.1823 23.4207C52.1823 23.5343 52.1482 23.6365 52.08 23.7274C52.0119 23.8069 51.8926 23.8751 51.7222 23.9318C51.5632 23.9886 51.3474 24.0284 51.0748 24.0511C50.8021 24.0852 50.4557 24.1022 50.0354 24.1022C49.6151 24.1022 49.2687 24.0852 48.9961 24.0511C48.7235 24.0284 48.502 23.9886 48.3316 23.9318C48.1725 23.8751 48.059 23.8069 47.9908 23.7274C47.9226 23.6365 47.8886 23.5343 47.8886 23.4207V8.25648C47.8886 8.14289 47.9226 8.04634 47.9908 7.96682C48.059 7.87595 48.1725 7.80212 48.3316 7.74532C48.502 7.67717 48.7235 7.62605 48.9961 7.59198C49.2687 7.5579 49.6151 7.54086 50.0354 7.54086C50.4557 7.54086 50.8021 7.5579 51.0748 7.59198C51.3474 7.62605 51.5632 7.67717 51.7222 7.74532C51.8926 7.80212 52.0119 7.87595 52.08 7.96682C52.1482 8.04634 52.1823 8.14289 52.1823 8.25648V23.4207ZM52.506 3.07679C52.506 3.94007 52.3299 4.53642 51.9778 4.86583C51.6257 5.19524 50.9725 5.35994 50.0184 5.35994C49.0529 5.35994 48.3997 5.20091 48.059 4.88286C47.7295 4.56481 47.5648 3.99119 47.5648 3.16198C47.5648 2.2987 47.7352 1.70235 48.076 1.37294C48.4281 1.03217 49.0869 0.86179 50.0524 0.86179C51.0066 0.86179 51.6541 1.0265 51.9948 1.35591C52.3356 1.67396 52.506 2.24758 52.506 3.07679ZM70.9927 23.4207C70.9927 23.5343 70.9586 23.6365 70.8905 23.7274C70.8223 23.8069 70.7087 23.8751 70.5497 23.9318C70.3907 23.9886 70.1692 24.0284 69.8852 24.0511C69.6126 24.0852 69.2718 24.1022 68.8629 24.1022C68.4426 24.1022 68.0905 24.0852 67.8065 24.0511C67.5339 24.0284 67.3181 23.9886 67.1591 23.9318C67 23.8751 66.8864 23.8069 66.8183 23.7274C66.7501 23.6365 66.7161 23.5343 66.7161 23.4207V14.7481C66.7161 14.0098 66.6593 13.4305 66.5457 13.0102C66.4434 12.5899 66.2901 12.2321 66.0856 11.9368C65.8812 11.6301 65.6142 11.3972 65.2848 11.2382C64.9668 11.0678 64.5919 10.9826 64.1603 10.9826C63.6151 10.9826 63.0641 11.1814 62.5076 11.579C61.951 11.9765 61.3717 12.5558 60.7696 13.3169V23.4207C60.7696 23.5343 60.7356 23.6365 60.6674 23.7274C60.5992 23.8069 60.48 23.8751 60.3096 23.9318C60.1506 23.9886 59.9348 24.0284 59.6621 24.0511C59.3895 24.0852 59.0431 24.1022 58.6228 24.1022C58.2025 24.1022 57.8561 24.0852 57.5834 24.0511C57.3108 24.0284 57.0893 23.9886 56.9189 23.9318C56.7599 23.8751 56.6463 23.8069 56.5782 23.7274C56.51 23.6365 56.4759 23.5343 56.4759 23.4207V8.2224C56.4759 8.10881 56.5043 8.01226 56.5611 7.93275C56.6179 7.84187 56.7202 7.76804 56.8678 7.71125C57.0155 7.65445 57.2029 7.61469 57.4301 7.59198C57.6686 7.5579 57.964 7.54086 58.3161 7.54086C58.6796 7.54086 58.9806 7.5579 59.2191 7.59198C59.4577 7.61469 59.6394 7.65445 59.7644 7.71125C59.9007 7.76804 59.9972 7.84187 60.054 7.93275C60.1108 8.01226 60.1392 8.10881 60.1392 8.2224V9.97736C60.9798 9.06864 61.8317 8.3871 62.695 7.93275C63.5696 7.47839 64.4783 7.25121 65.4211 7.25121C66.4548 7.25121 67.3238 7.42159 68.028 7.76236C68.7436 8.10313 69.3173 8.56885 69.7489 9.15951C70.1919 9.73882 70.5099 10.4204 70.703 11.2041C70.8962 11.9879 70.9927 12.9307 70.9927 14.0325V23.4207ZM98.4246 15.6C98.4246 16.9518 98.2769 18.1729 97.9816 19.2633C97.6976 20.3424 97.2773 21.2625 96.7208 22.0235C96.1642 22.7846 95.4713 23.3696 94.6421 23.7785C93.8129 24.1874 92.8644 24.3919 91.7966 24.3919C91.3536 24.3919 90.9447 24.3464 90.5699 24.2556C90.2064 24.1761 89.8486 24.0511 89.4965 23.8807C89.1557 23.699 88.8149 23.4775 88.4742 23.2162C88.1334 22.955 87.7813 22.6483 87.4178 22.2962V29.4523C87.4178 29.5659 87.3837 29.6681 87.3155 29.759C87.2474 29.8499 87.1281 29.9237 86.9577 29.9805C86.7987 30.0486 86.5829 30.0998 86.3103 30.1338C86.0377 30.1679 85.6912 30.185 85.2709 30.185C84.8506 30.185 84.5042 30.1679 84.2316 30.1338C83.959 30.0998 83.7375 30.0486 83.5671 29.9805C83.4081 29.9237 83.2945 29.8499 83.2263 29.759C83.1582 29.6681 83.1241 29.5659 83.1241 29.4523V8.2224C83.1241 8.10881 83.1525 8.01226 83.2093 7.93275C83.2661 7.84187 83.3626 7.76804 83.4989 7.71125C83.6466 7.65445 83.834 7.61469 84.0612 7.59198C84.2997 7.5579 84.5951 7.54086 84.9472 7.54086C85.288 7.54086 85.5719 7.5579 85.7991 7.59198C86.0377 7.61469 86.2251 7.65445 86.3614 7.71125C86.509 7.76804 86.6113 7.84187 86.6681 7.93275C86.7249 8.01226 86.7533 8.10881 86.7533 8.2224V10.0114C87.1963 9.55708 87.6279 9.15951 88.0482 8.81874C88.4798 8.46662 88.9171 8.17696 89.3601 7.94978C89.8031 7.71125 90.2575 7.53518 90.7232 7.42159C91.2003 7.308 91.7058 7.25121 92.2396 7.25121C93.3528 7.25121 94.3013 7.47271 95.0851 7.91571C95.8688 8.34735 96.5049 8.94369 96.9934 9.70474C97.4932 10.4658 97.8567 11.3518 98.0838 12.3627C98.311 13.3737 98.4246 14.4528 98.4246 15.6ZM93.9605 15.9067C93.9605 15.2593 93.9094 14.6402 93.8072 14.0495C93.7163 13.4475 93.5516 12.9137 93.3131 12.4479C93.0859 11.9822 92.7792 11.613 92.393 11.3404C92.0181 11.0565 91.5467 10.9145 90.9788 10.9145C90.6948 10.9145 90.4109 10.9599 90.1269 11.0508C89.8543 11.1303 89.5703 11.2666 89.275 11.4597C88.991 11.6528 88.6956 11.9027 88.389 12.2094C88.0823 12.5161 87.7585 12.8966 87.4178 13.351V18.3603C88.0198 19.1213 88.5934 19.712 89.1386 20.1323C89.6839 20.5412 90.2518 20.7457 90.8425 20.7457C91.3991 20.7457 91.8705 20.6037 92.2567 20.3197C92.6542 20.0357 92.978 19.6666 93.2279 19.2122C93.4778 18.7465 93.6595 18.224 93.7731 17.6447C93.8981 17.0654 93.9605 16.486 93.9605 15.9067ZM114.816 23.4718C114.816 23.6308 114.759 23.7558 114.645 23.8467C114.532 23.9375 114.35 24 114.1 24.0341C113.861 24.0795 113.504 24.1022 113.027 24.1022C112.515 24.1022 112.141 24.0795 111.902 24.0341C111.675 24 111.51 23.9375 111.408 23.8467C111.317 23.7558 111.272 23.6308 111.272 23.4718V22.2621C110.647 22.9323 109.931 23.4548 109.125 23.8296C108.33 24.2045 107.444 24.3919 106.467 24.3919C105.66 24.3919 104.916 24.284 104.235 24.0682C103.565 23.8637 102.98 23.557 102.48 23.1481C101.991 22.7278 101.611 22.211 101.338 21.5976C101.066 20.9842 100.929 20.2686 100.929 19.4507C100.929 18.5647 101.1 17.798 101.44 17.1505C101.793 16.4917 102.309 15.9522 102.991 15.5319C103.684 15.1003 104.541 14.7822 105.564 14.5777C106.586 14.3733 107.773 14.271 109.125 14.271H110.607V13.351C110.607 12.8739 110.556 12.4593 110.454 12.1072C110.363 11.7437 110.204 11.4427 109.977 11.2041C109.761 10.9656 109.466 10.7895 109.091 10.6759C108.727 10.5623 108.273 10.5056 107.728 10.5056C107.012 10.5056 106.37 10.5851 105.802 10.7441C105.246 10.9031 104.752 11.0792 104.32 11.2723C103.888 11.4654 103.525 11.6414 103.229 11.8005C102.945 11.9595 102.713 12.039 102.531 12.039C102.406 12.039 102.292 11.9993 102.19 11.9197C102.099 11.8402 102.02 11.7266 101.952 11.579C101.895 11.4313 101.849 11.2496 101.815 11.0337C101.781 10.8179 101.764 10.5794 101.764 10.3181C101.764 9.966 101.793 9.68771 101.849 9.48324C101.906 9.27878 102.014 9.09704 102.173 8.93801C102.332 8.76763 102.61 8.58589 103.008 8.39278C103.406 8.18832 103.871 8.0009 104.405 7.83051C104.939 7.66013 105.518 7.52382 106.143 7.42159C106.779 7.308 107.432 7.25121 108.102 7.25121C109.295 7.25121 110.312 7.37048 111.152 7.60902C112.004 7.83619 112.703 8.194 113.248 8.68244C113.793 9.15951 114.191 9.77858 114.441 10.5396C114.691 11.3007 114.816 12.2037 114.816 13.2487V23.4718ZM110.607 16.9631H108.971C108.278 16.9631 107.688 17.0142 107.199 17.1165C106.711 17.2187 106.313 17.372 106.007 17.5765C105.7 17.781 105.473 18.0309 105.325 18.3262C105.189 18.6102 105.121 18.9396 105.121 19.3144C105.121 19.9505 105.319 20.4503 105.717 20.8138C106.126 21.1773 106.688 21.359 107.404 21.359C108.006 21.359 108.557 21.2057 109.057 20.899C109.568 20.5923 110.085 20.1436 110.607 19.553V16.9631ZM132.808 9.27878C132.808 9.82401 132.746 10.2273 132.621 10.4885C132.496 10.7498 132.342 10.8804 132.161 10.8804H130.372C130.622 11.153 130.798 11.4654 130.9 11.8175C131.013 12.1583 131.07 12.5161 131.07 12.8909C131.07 13.7769 130.923 14.5664 130.627 15.2593C130.332 15.9408 129.906 16.5201 129.349 16.9972C128.804 17.4629 128.14 17.8207 127.356 18.0706C126.583 18.3092 125.72 18.4284 124.766 18.4284C124.278 18.4284 123.812 18.3716 123.369 18.258C122.926 18.1331 122.585 17.9911 122.347 17.8321C122.21 17.9797 122.085 18.1558 121.972 18.3603C121.869 18.5647 121.818 18.7919 121.818 19.0418C121.818 19.3712 121.96 19.6438 122.244 19.8597C122.54 20.0641 122.949 20.1777 123.471 20.2004L127.168 20.3367C128.032 20.3708 128.798 20.4958 129.469 20.7116C130.15 20.916 130.718 21.2114 131.172 21.5976C131.638 21.9724 131.99 22.4268 132.229 22.9607C132.479 23.4945 132.604 24.1022 132.604 24.7838C132.604 25.5335 132.439 26.2377 132.11 26.8965C131.78 27.5667 131.286 28.146 130.627 28.6345C129.968 29.1229 129.139 29.5091 128.14 29.7931C127.151 30.077 125.993 30.219 124.664 30.219C123.369 30.219 122.261 30.1168 121.341 29.9123C120.433 29.7079 119.683 29.4239 119.092 29.0604C118.513 28.6969 118.087 28.2596 117.814 27.7485C117.553 27.2487 117.422 26.6978 117.422 26.0957C117.422 25.7209 117.468 25.3631 117.559 25.0223C117.661 24.6815 117.803 24.3521 117.985 24.0341C118.178 23.7274 118.411 23.4321 118.683 23.1481C118.956 22.8641 119.268 22.5915 119.62 22.3302C119.132 22.069 118.751 21.7168 118.479 21.2738C118.218 20.8195 118.087 20.3254 118.087 19.7915C118.087 19.1213 118.24 18.5136 118.547 17.9684C118.854 17.4118 119.251 16.912 119.74 16.469C119.342 16.0714 119.024 15.5944 118.786 15.0378C118.547 14.4812 118.428 13.7883 118.428 12.9591C118.428 12.0731 118.581 11.2836 118.888 10.5907C119.206 9.88649 119.643 9.29582 120.2 8.81874C120.756 8.33031 121.421 7.96114 122.193 7.71125C122.966 7.44999 123.818 7.31936 124.749 7.31936C125.226 7.31936 125.68 7.34776 126.112 7.40455C126.555 7.46135 126.964 7.54086 127.339 7.64309H132.161C132.354 7.64309 132.507 7.76804 132.621 8.01794C132.746 8.26783 132.808 8.68812 132.808 9.27878ZM127.305 12.8739C127.305 12.056 127.078 11.4199 126.623 10.9656C126.169 10.5112 125.527 10.2841 124.698 10.2841C124.278 10.2841 123.908 10.3579 123.59 10.5056C123.272 10.6419 123.005 10.835 122.79 11.0849C122.585 11.3234 122.432 11.6074 122.33 11.9368C122.227 12.2548 122.176 12.5899 122.176 12.942C122.176 13.7145 122.403 14.3278 122.858 14.7822C123.312 15.2252 123.943 15.4467 124.749 15.4467C125.181 15.4467 125.555 15.3785 125.874 15.2422C126.192 15.1059 126.453 14.9185 126.657 14.68C126.873 14.4414 127.032 14.1688 127.134 13.8621C127.248 13.5441 127.305 13.2147 127.305 12.8739ZM128.31 25.0053C128.31 24.4941 128.106 24.1022 127.697 23.8296C127.288 23.557 126.725 23.4093 126.01 23.3866L122.96 23.3014C122.665 23.5172 122.426 23.7274 122.244 23.9318C122.074 24.1249 121.932 24.3124 121.818 24.4941C121.716 24.6759 121.648 24.8519 121.614 25.0223C121.58 25.1927 121.563 25.3688 121.563 25.5505C121.563 26.1184 121.847 26.5501 122.415 26.8454C122.994 27.1408 123.806 27.2884 124.851 27.2884C125.499 27.2884 126.044 27.2203 126.487 27.084C126.93 26.959 127.288 26.7886 127.56 26.5728C127.833 26.357 128.026 26.1128 128.14 25.8402C128.253 25.5789 128.31 25.3006 128.31 25.0053ZM149.335 15.3785C149.335 15.9011 149.216 16.2873 148.978 16.5372C148.75 16.7871 148.432 16.912 148.024 16.912H138.772C138.772 17.5595 138.845 18.1501 138.993 18.684C139.152 19.2065 139.396 19.6552 139.726 20.03C140.067 20.3935 140.498 20.6718 141.021 20.8649C141.555 21.058 142.191 21.1546 142.929 21.1546C143.679 21.1546 144.338 21.1035 144.905 21.0012C145.473 20.8876 145.962 20.7684 146.371 20.6434C146.791 20.5071 147.138 20.3878 147.41 20.2856C147.683 20.172 147.904 20.1152 148.075 20.1152C148.177 20.1152 148.262 20.138 148.33 20.1834C148.398 20.2175 148.455 20.2856 148.501 20.3878C148.546 20.4901 148.574 20.6377 148.586 20.8308C148.609 21.0126 148.62 21.2455 148.62 21.5294C148.62 21.7793 148.614 21.9951 148.603 22.1769C148.591 22.3473 148.574 22.4949 148.552 22.6199C148.529 22.7448 148.495 22.8527 148.449 22.9436C148.404 23.0231 148.342 23.1026 148.262 23.1822C148.194 23.2617 147.995 23.3696 147.666 23.5059C147.336 23.6422 146.916 23.7785 146.405 23.9148C145.894 24.0398 145.309 24.1477 144.65 24.2385C143.991 24.3408 143.287 24.3919 142.537 24.3919C141.185 24.3919 139.998 24.2215 138.976 23.8807C137.965 23.54 137.119 23.0231 136.437 22.3302C135.756 21.6373 135.245 20.7627 134.904 19.7063C134.575 18.6499 134.41 17.4118 134.41 15.9919C134.41 14.6402 134.586 13.4248 134.938 12.3457C135.29 11.2552 135.801 10.3352 136.471 9.58547C137.142 8.82442 137.954 8.24512 138.908 7.84755C139.873 7.44999 140.958 7.25121 142.162 7.25121C143.434 7.25121 144.519 7.43863 145.417 7.81348C146.325 8.18832 147.069 8.71083 147.649 9.38101C148.228 10.0398 148.654 10.8236 148.927 11.7323C149.199 12.641 149.335 13.6293 149.335 14.697V15.3785ZM145.178 14.1518C145.212 12.9477 144.968 12.0049 144.445 11.3234C143.934 10.6305 143.139 10.2841 142.06 10.2841C141.515 10.2841 141.038 10.3863 140.629 10.5907C140.231 10.7952 139.896 11.0735 139.624 11.4256C139.362 11.7664 139.158 12.1753 139.01 12.6524C138.874 13.1181 138.794 13.6179 138.772 14.1518H145.178Z" fill="white"/>
</svg>
