<svg width="78" height="24" viewBox="0 0 78 24" fill="none" xmlns="http://www.w3.org/2000/svg">
<path d="M18.5824 21.4325C18.5824 21.6937 18.537 21.9266 18.4461 22.131C18.3553 22.3355 18.2303 22.5059 18.0713 22.6422C17.9236 22.7785 17.7419 22.8807 17.5261 22.9489C17.3216 23.0057 17.1115 23.0341 16.8956 23.0341H14.9873C14.5898 23.0341 14.2433 22.9943 13.948 22.9148C13.664 22.8353 13.3971 22.6933 13.1472 22.4888C12.9086 22.273 12.6758 21.9891 12.4486 21.6369C12.2214 21.2734 11.9658 20.8077 11.6819 20.2398L6.19549 9.93151C5.87744 9.31813 5.55371 8.65931 5.2243 7.95505C4.89489 7.23944 4.59956 6.54654 4.3383 5.87636H4.30422C4.34966 6.69421 4.38374 7.51205 4.40646 8.3299C4.42917 9.13638 4.44053 9.97127 4.44053 10.8345V22.3696C4.44053 22.4832 4.40646 22.5854 4.3383 22.6763C4.28151 22.7671 4.1736 22.8467 4.01457 22.9148C3.8669 22.9716 3.66244 23.017 3.40119 23.0511C3.13993 23.0852 2.80484 23.1022 2.39592 23.1022C1.99836 23.1022 1.66895 23.0852 1.40769 23.0511C1.14643 23.017 0.941972 22.9716 0.794305 22.9148C0.646639 22.8467 0.544408 22.7671 0.487613 22.6763C0.430818 22.5854 0.402421 22.4832 0.402421 22.3696V2.55386C0.402421 2.01999 0.555767 1.62243 0.862459 1.36117C1.18051 1.08856 1.56671 0.952251 2.02107 0.952251H4.42349C4.85513 0.952251 5.21862 0.992007 5.51395 1.07152C5.80929 1.13967 6.07054 1.25894 6.29772 1.42933C6.53626 1.59971 6.75776 1.83825 6.96222 2.14494C7.16668 2.44028 7.37682 2.80944 7.59265 3.25244L11.8863 11.3116C12.1362 11.8001 12.3804 12.2828 12.619 12.7599C12.8689 13.2256 13.1074 13.697 13.3346 14.1741C13.5618 14.6398 13.7833 15.0998 13.9991 15.5542C14.2149 16.0086 14.4251 16.4629 14.6295 16.9173H14.6466C14.6125 16.1221 14.5841 15.2929 14.5614 14.4297C14.55 13.5664 14.5443 12.7429 14.5443 11.9591V1.61675C14.5443 1.50316 14.5784 1.40093 14.6466 1.31006C14.7147 1.21919 14.8283 1.13967 14.9873 1.07152C15.1464 1.00337 15.3565 0.95793 15.6178 0.935213C15.879 0.901136 16.2141 0.884097 16.623 0.884097C17.0092 0.884097 17.333 0.901136 17.5942 0.935213C17.8555 0.95793 18.0543 1.00337 18.1906 1.07152C18.3382 1.13967 18.4405 1.21919 18.4973 1.31006C18.554 1.40093 18.5824 1.50316 18.5824 1.61675V21.4325ZM37.1884 14.3785C37.1884 14.9011 37.0692 15.2873 36.8306 15.5372C36.6034 15.7871 36.2854 15.912 35.8765 15.912H26.6246C26.6246 16.5595 26.6984 17.1501 26.8461 17.684C27.0051 18.2065 27.2493 18.6552 27.5787 19.03C27.9195 19.3935 28.3512 19.6718 28.8737 19.8649C29.4075 20.058 30.0436 20.1546 30.782 20.1546C31.5317 20.1546 32.1905 20.1035 32.7584 20.0012C33.3264 19.8876 33.8148 19.7684 34.2237 19.6434C34.644 19.5071 34.9905 19.3878 35.2631 19.2856C35.5357 19.172 35.7572 19.1152 35.9276 19.1152C36.0298 19.1152 36.115 19.138 36.1832 19.1834C36.2513 19.2175 36.3081 19.2856 36.3535 19.3878C36.399 19.4901 36.4274 19.6377 36.4387 19.8308C36.4615 20.0126 36.4728 20.2455 36.4728 20.5294C36.4728 20.7793 36.4671 20.9951 36.4558 21.1769C36.4444 21.3473 36.4274 21.4949 36.4047 21.6199C36.3819 21.7448 36.3479 21.8527 36.3024 21.9436C36.257 22.0231 36.1945 22.1026 36.115 22.1822C36.0468 22.2617 35.8481 22.3696 35.5187 22.5059C35.1892 22.6422 34.769 22.7785 34.2578 22.9148C33.7467 23.0398 33.1617 23.1477 32.5029 23.2385C31.844 23.3408 31.1398 23.3919 30.3901 23.3919C29.0384 23.3919 27.8514 23.2215 26.8291 22.8807C25.8181 22.54 24.9719 22.0231 24.2903 21.3302C23.6088 20.6373 23.0976 19.7627 22.7569 18.7063C22.4275 17.6499 22.2627 16.4118 22.2627 14.9919C22.2627 13.6402 22.4388 12.4248 22.7909 11.3457C23.1431 10.2552 23.6542 9.33517 24.3244 8.58547C24.9946 7.82442 25.8067 7.24512 26.7609 6.84755C27.7264 6.44999 28.8112 6.25121 30.0152 6.25121C31.2874 6.25121 32.3722 6.43863 33.2696 6.81348C34.1783 7.18832 34.9223 7.71083 35.5016 8.38101C36.0809 9.03983 36.5069 9.8236 36.7795 10.7323C37.0521 11.641 37.1884 12.6293 37.1884 13.697V14.3785ZM33.031 13.1518C33.0651 11.9477 32.8209 11.0049 32.2984 10.3234C31.7872 9.6305 30.9921 9.28405 29.913 9.28405C29.3678 9.28405 28.8907 9.38628 28.4818 9.59074C28.0842 9.7952 27.7491 10.0735 27.4765 10.4256C27.2153 10.7664 27.0108 11.1753 26.8631 11.6524C26.7268 12.1181 26.6473 12.6179 26.6246 13.1518H33.031ZM63.8195 7.18832C63.8195 7.31327 63.8025 7.46662 63.7684 7.64836C63.7343 7.8301 63.6718 8.09136 63.581 8.43213L59.5258 22.1822C59.469 22.3753 59.3952 22.5343 59.3043 22.6592C59.2135 22.7728 59.0715 22.8637 58.8784 22.9318C58.6966 23 58.4297 23.0454 58.0776 23.0682C57.7368 23.0909 57.2881 23.1022 56.7315 23.1022C56.1749 23.1022 55.7206 23.0852 55.3684 23.0511C55.0163 23.0284 54.738 22.983 54.5336 22.9148C54.3405 22.8467 54.1985 22.7558 54.1076 22.6422C54.0167 22.5172 53.9486 22.3639 53.9031 22.1822L51.3474 12.9473L51.3133 12.794L51.2792 12.9473L48.9279 22.1822C48.8825 22.3753 48.8143 22.5343 48.7235 22.6592C48.6439 22.7728 48.502 22.8637 48.2975 22.9318C48.093 23 47.8147 23.0454 47.4626 23.0682C47.1105 23.0909 46.6561 23.1022 46.0995 23.1022C45.5316 23.1022 45.0715 23.0852 44.7194 23.0511C44.3786 23.0284 44.106 22.983 43.9016 22.9148C43.7085 22.8467 43.5665 22.7558 43.4756 22.6422C43.3847 22.5172 43.3166 22.3639 43.2711 22.1822L39.2501 8.43213C39.1478 8.10272 39.0797 7.84714 39.0456 7.6654C39.0229 7.4723 39.0115 7.31327 39.0115 7.18832C39.0115 7.07473 39.0399 6.97818 39.0967 6.89867C39.1649 6.8078 39.2785 6.73964 39.4375 6.69421C39.6079 6.63741 39.8294 6.59766 40.102 6.57494C40.386 6.55222 40.7381 6.54086 41.1584 6.54086C41.6127 6.54086 41.9819 6.55222 42.2659 6.57494C42.5499 6.59766 42.7714 6.63741 42.9304 6.69421C43.0894 6.751 43.1973 6.83051 43.2541 6.93275C43.3223 7.02362 43.3734 7.13721 43.4075 7.27351L46.4233 18.4337L46.4573 18.6382L46.4914 18.4337L49.3198 7.27351C49.3539 7.13721 49.405 7.02362 49.4731 6.93275C49.5527 6.83051 49.6662 6.751 49.8139 6.69421C49.9616 6.63741 50.166 6.59766 50.4273 6.57494C50.6999 6.55222 51.0464 6.54086 51.4666 6.54086C51.8869 6.54086 52.2277 6.5579 52.4889 6.59198C52.7502 6.61469 52.9547 6.65445 53.1023 6.71125C53.2614 6.75668 53.3693 6.82484 53.4261 6.91571C53.4942 6.99522 53.5453 7.09177 53.5794 7.20536L56.6123 18.4507L56.6634 18.6382L56.6974 18.4337L59.594 7.27351C59.6167 7.13721 59.6621 7.02362 59.7303 6.93275C59.7984 6.83051 59.912 6.751 60.0711 6.69421C60.2301 6.63741 60.4459 6.59766 60.7185 6.57494C60.9911 6.55222 61.3376 6.54086 61.7579 6.54086C62.1781 6.54086 62.5189 6.55222 62.7802 6.57494C63.0528 6.59766 63.2629 6.63741 63.4106 6.69421C63.5696 6.73964 63.6775 6.8078 63.7343 6.89867C63.7911 6.97818 63.8195 7.07473 63.8195 7.18832ZM77.0243 18.127C77.0243 18.9903 76.8596 19.7513 76.5302 20.4102C76.2121 21.069 75.7578 21.6199 75.1671 22.0629C74.5765 22.5059 73.8779 22.8353 73.0714 23.0511C72.2649 23.2783 71.3903 23.3919 70.4475 23.3919C69.8795 23.3919 69.3343 23.3464 68.8118 23.2556C68.3006 23.1761 67.8406 23.0738 67.4317 22.9489C67.0227 22.8126 66.682 22.6763 66.4094 22.54C66.1367 22.4037 65.938 22.2787 65.813 22.1651C65.6881 22.0402 65.5915 21.8527 65.5234 21.6028C65.4552 21.3416 65.4211 20.9611 65.4211 20.4613C65.4211 20.1319 65.4325 19.8706 65.4552 19.6775C65.4779 19.473 65.512 19.314 65.5574 19.2004C65.6029 19.0755 65.6597 18.996 65.7278 18.9619C65.796 18.9165 65.8812 18.8937 65.9834 18.8937C66.1083 18.8937 66.2901 18.9676 66.5286 19.1152C66.7785 19.2515 67.0852 19.4049 67.4487 19.5753C67.8122 19.7457 68.2325 19.9047 68.7095 20.0523C69.198 20.2 69.7489 20.2738 70.3623 20.2738C70.7485 20.2738 71.0893 20.2341 71.3846 20.1546C71.6913 20.0751 71.9525 19.9615 72.1684 19.8138C72.3955 19.6661 72.5659 19.4787 72.6795 19.2515C72.7931 19.0244 72.8499 18.7631 72.8499 18.4678C72.8499 18.127 72.742 17.8374 72.5262 17.5988C72.3217 17.3489 72.0434 17.1331 71.6913 16.9514C71.3505 16.7696 70.9586 16.5992 70.5156 16.4402C70.084 16.2812 69.6353 16.1051 69.1696 15.912C68.7152 15.7189 68.2665 15.4974 67.8235 15.2475C67.3919 14.9976 67 14.6909 66.6479 14.3274C66.3071 13.9639 66.0288 13.5266 65.813 13.0155C65.6086 12.5043 65.5063 11.8909 65.5063 11.1753C65.5063 10.4483 65.6483 9.78385 65.9323 9.18182C66.2163 8.56844 66.6252 8.04592 67.1591 7.61428C67.6929 7.18264 68.3404 6.84755 69.1014 6.60902C69.8738 6.37048 70.7371 6.25121 71.6913 6.25121C72.1684 6.25121 72.6284 6.28528 73.0714 6.35344C73.5257 6.42159 73.9347 6.50678 74.2982 6.60902C74.6616 6.71125 74.9683 6.82484 75.2182 6.94978C75.4681 7.06337 75.6442 7.1656 75.7464 7.25648C75.86 7.33599 75.9395 7.42118 75.985 7.51205C76.0304 7.59157 76.0645 7.6938 76.0872 7.81874C76.1099 7.93233 76.127 8.08 76.1383 8.26174C76.161 8.43213 76.1724 8.64795 76.1724 8.90921C76.1724 9.2159 76.161 9.46579 76.1383 9.6589C76.127 9.852 76.0986 10.0053 76.0531 10.1189C76.019 10.2325 75.9679 10.312 75.8998 10.3575C75.8316 10.3916 75.7521 10.4086 75.6612 10.4086C75.559 10.4086 75.4 10.3518 75.1842 10.2382C74.9683 10.1133 74.6957 9.98263 74.3663 9.84632C74.0483 9.71001 73.6734 9.58506 73.2418 9.47147C72.8215 9.34653 72.3387 9.28405 71.7935 9.28405C71.4073 9.28405 71.0722 9.32381 70.7882 9.40332C70.5043 9.48283 70.2714 9.59642 70.0897 9.74409C69.9079 9.89176 69.7716 10.0678 69.6807 10.2723C69.5899 10.4654 69.5444 10.6755 69.5444 10.9027C69.5444 11.2548 69.6523 11.5502 69.8682 11.7887C70.084 12.0272 70.368 12.2374 70.7201 12.4191C71.0722 12.6009 71.4698 12.7713 71.9128 12.9303C72.3671 13.0893 72.8215 13.2654 73.2759 13.4585C73.7416 13.6402 74.1959 13.856 74.6389 14.1059C75.0933 14.3558 75.4965 14.6625 75.8487 15.026C76.2008 15.3895 76.4848 15.8268 76.7006 16.338C76.9164 16.8378 77.0243 17.4341 77.0243 18.127Z" fill="white"/>
</svg>
